<?xml version="1.0" standalone="no"?><!-- Generator: Gravit.io --><svg xmlns="http://www.w3.org/2000/svg" xmlns:xlink="http://www.w3.org/1999/xlink" style="isolation:isolate" viewBox="0 0 500 500" width="500" height="500"><defs><clipPath id="_clipPath_wy01rOANFaz4a3rTisHrw6EduwBhPHtg"><rect width="500" height="500"/></clipPath></defs><g clip-path="url(#_clipPath_wy01rOANFaz4a3rTisHrw6EduwBhPHtg)"><path d="M 101.95 15 L 398.05 15 C 446.039 15 485 53.961 485 101.95 L 485 398.05 C 485 446.039 446.039 485 398.05 485 L 101.95 485 C 53.961 485 15 446.039 15 398.05 L 15 101.95 C 15 53.961 53.961 15 101.95 15 Z" style="stroke:none;fill:#EBEBEB;stroke-miterlimit:10;"/><path d="M 101.95 15 L 398.05 15 C 446.039 15 485 53.961 485 101.95 L 485 398.05 C 485 446.039 446.039 485 398.05 485 L 101.95 485 C 53.961 485 15 446.039 15 398.05 L 15 101.95 C 15 53.961 53.961 15 101.95 15 Z" style="fill:none;stroke:#640064;stroke-width:30;stroke-linecap:square;stroke-miterlimit:3;"/><path d=" M 234.423 278.639 L 234.423 278.639 L 234.423 366.693 L 234.423 366.693 Q 204.952 382.147 166.855 382.147 L 166.855 382.147 L 166.855 382.147 Q 105.037 382.147 65.862 345.488 L 65.862 345.488 L 65.862 345.488 Q 26.687 308.829 26.687 248.808 L 26.687 248.808 L 26.687 248.808 Q 26.687 216.102 39.266 189.686 L 39.266 189.686 L 39.266 189.686 Q 51.845 163.27 72.152 147.636 L 72.152 147.636 L 72.152 147.636 Q 92.458 132.001 116.538 123.735 L 116.538 123.735 L 116.538 123.735 Q 140.618 115.469 165.417 115.469 L 165.417 115.469 L 165.417 115.469 Q 207.108 115.469 234.423 134.517 L 234.423 134.517 L 234.423 222.572 L 234.423 222.572 Q 223.641 209.274 208.366 202.625 L 208.366 202.625 L 208.366 202.625 Q 193.092 195.976 178.715 195.976 L 178.715 195.976 L 178.715 195.976 Q 148.525 195.976 135.587 212.868 L 135.587 212.868 L 135.587 212.868 Q 122.648 229.76 122.648 251.324 L 122.648 251.324 L 122.648 251.324 Q 122.648 277.201 139.181 289.421 L 139.181 289.421 L 139.181 289.421 Q 155.713 301.641 178.356 301.641 L 178.356 301.641 L 178.356 301.641 Q 208.905 301.641 234.423 278.639 Z  M 239.095 374.6 L 239.095 123.016 L 381.06 123.016 L 381.06 123.016 Q 401.546 123.016 417.001 127.868 L 417.001 127.868 L 417.001 127.868 Q 432.455 132.72 440.542 139.729 L 440.542 139.729 L 440.542 139.729 Q 448.628 146.737 453.48 156.261 L 453.48 156.261 L 453.48 156.261 Q 458.332 165.786 459.59 172.794 L 459.59 172.794 L 459.59 172.794 Q 460.848 179.802 460.848 186.99 L 460.848 186.99 L 460.848 186.99 Q 460.848 206.758 447.73 220.595 L 447.73 220.595 L 447.73 220.595 Q 434.612 234.432 417.001 239.464 L 417.001 239.464 L 417.001 240.182 L 417.001 240.182 Q 441.8 244.495 457.434 261.926 L 457.434 261.926 L 457.434 261.926 Q 473.068 279.358 473.068 304.516 L 473.068 304.516 L 473.068 304.516 Q 473.068 315.657 469.294 326.619 L 469.294 326.619 L 469.294 326.619 Q 465.52 337.581 456.895 348.902 L 456.895 348.902 L 456.895 348.902 Q 448.269 360.224 430.478 367.412 L 430.478 367.412 L 430.478 367.412 Q 412.688 374.6 387.889 374.6 L 387.889 374.6 L 239.095 374.6 L 239.095 374.6 Z  M 339.729 183.396 L 339.729 218.618 L 349.073 218.618 L 349.073 218.618 Q 371.356 218.618 371.356 201.007 L 371.356 201.007 L 371.356 201.007 Q 371.356 183.396 349.073 183.396 L 349.073 183.396 L 339.729 183.396 L 339.729 183.396 Z  M 339.729 276.482 L 339.729 314.22 L 351.949 314.22 L 351.949 314.22 Q 377.107 314.22 377.107 295.171 L 377.107 295.171 L 377.107 295.171 Q 377.107 276.482 351.949 276.482 L 351.949 276.482 L 339.729 276.482 L 339.729 276.482 Z " fill-rule="evenodd" fill="rgb(100,0,100)"/></g></svg>